<svg width="1200" height="675" viewBox="0 0 1200 675" fill="none" xmlns="http://www.w3.org/2000/svg">
<g clip-path="url(#clip0_47_4100)">
<path d="M1200 0H0V675H1200V0Z" fill="#161D26"/>
<mask id="mask0_47_4100" style="mask-type:luminance" maskUnits="userSpaceOnUse" x="337" y="75" width="525" height="525">
<path d="M636.997 600H561.997V525H636.997V600ZM561.995 524.998H486.995V449.998H561.995V524.998ZM712 524.998H637V449.998H712V524.998ZM487 449.995H412V374.995H487V449.995ZM786.995 449.995H711.995V374.995H786.995V449.995ZM562 149.995H636.997V224.995H561.997V150H412V374.995H337V149.995H412V75H562V149.995ZM787 149.995H862V374.995H787V150H637V75H787V149.995Z" fill="white"/>
</mask>
<g mask="url(#mask0_47_4100)">
<path d="M1070 63H262V612H1070V63Z" fill="url(#paint0_linear_47_4100)"/>
</g>
<path d="M112.5 0V675" stroke="#656871"/>
<path d="M187.5 0V675" stroke="#656871"/>
<path d="M262.5 0V675" stroke="#656871"/>
<path d="M337.5 0V675" stroke="#656871"/>
<path d="M412.5 0V675" stroke="#656871"/>
<path d="M487.5 0V75" stroke="#656871"/>
<path d="M487.5 150V675" stroke="#656871"/>
<path d="M562.5 0V675" stroke="#656871"/>
<path d="M637.5 0V675" stroke="#656871"/>
<path d="M712.5 0V75" stroke="#656871"/>
<path d="M712.5 150V675" stroke="#656871"/>
<path d="M712.5 466V524" stroke="#656871"/>
<path d="M787.5 0V675" stroke="#656871"/>
<path d="M862.5 0V675" stroke="#656871"/>
<path d="M937.5 0V675" stroke="#656871"/>
<path d="M1012.5 0V675" stroke="#656871"/>
<path d="M1087.5 0V675" stroke="#656871"/>
<path d="M113 74.5H1087" stroke="#656871"/>
<path d="M112 0.5L1087 0.500085" stroke="#656871"/>
<path d="M112 149.5H1087" stroke="#656871"/>
<path d="M112 224.5H337" stroke="#656871"/>
<path d="M412 224.5H788" stroke="#656871"/>
<path d="M862 224.5H1087" stroke="#656871"/>
<path d="M112 299.5H337" stroke="#656871"/>
<path d="M412 299.5H787" stroke="#656871"/>
<path d="M862 299.5H1087" stroke="#656871"/>
<path d="M337 374.5H413" stroke="#656871"/>
<path d="M112 374.5H1087" stroke="#656871"/>
<path d="M112 449.5H1087" stroke="#656871"/>
<path d="M112 524.5H1087" stroke="#656871"/>
<path d="M112 599.5H1087" stroke="#656871"/>
<path d="M112 674.5H1088" stroke="#656871"/>
</g>
<defs>
<linearGradient id="paint0_linear_47_4100" x1="262" y1="63" x2="1127.76" y2="496.71" gradientUnits="userSpaceOnUse">
<stop stop-color="#DACDFF"/>
<stop offset="0.283156" stop-color="#8E93FF"/>
<stop offset="0.585956" stop-color="#C994FE"/>
<stop offset="1" stop-color="#2780E6"/>
</linearGradient>
<clipPath id="clip0_47_4100">
<rect width="1200" height="675" fill="white"/>
</clipPath>
</defs>
</svg>
