<svg width="1200" height="675" viewBox="0 0 1200 675" fill="none" xmlns="http://www.w3.org/2000/svg">
<g clip-path="url(#clip0_47_4422)">
<path d="M1200 0H0V675H1200V0Z" fill="#161D26"/>
<mask id="mask0_47_4422" style="mask-type:luminance" maskUnits="userSpaceOnUse" x="113" y="75" width="976" height="525">
<path d="M338.645 525H413.644V600H338.644L338.645 525H263.645V450H338.645V525ZM938.141 525H863.142V600H788.142V525H863.141V450H938.141V525ZM638.889 375H563.892V599.999H488.892V375H563.889V300H638.889V375ZM1088.14 375.001L1013.14 375V450H938.145V375H1013.14V300.001H938.145V225.001H1013.14V300.001H1088.14V375.001ZM263.642 300H188.643V374.999H263.642V449.999H188.642V374.999H113.643V300H188.642V225H263.642V300ZM713.894 300H638.894V75H713.894V300ZM413.644 150H338.645V225H263.645V150H338.645L338.644 75H413.644V150ZM938.141 150.001V225H863.141V150L938.141 150.001ZM863.142 75.001V150H788.142V75L863.142 75.001Z" fill="white"/>
</mask>
<g mask="url(#mask0_47_4422)">
<path d="M1519 0H112V791H1519V0Z" fill="url(#paint0_linear_47_4422)"/>
<path d="M631 0H112V791H631V0Z" fill="url(#paint1_linear_47_4422)"/>
</g>
<path d="M38.5 0V675" stroke="#656871"/>
<path d="M113.5 0V675" stroke="#656871"/>
<path d="M188.5 0V675" stroke="#656871"/>
<path d="M263.5 0V675" stroke="#656871"/>
<path d="M338.5 0V675" stroke="#656871"/>
<path d="M413.5 0V675" stroke="#656871"/>
<path d="M488.5 0V675" stroke="#656871"/>
<path d="M563.5 0V675" stroke="#656871"/>
<path d="M638.5 0V675" stroke="#656871"/>
<path d="M713.5 0V675" stroke="#656871"/>
<path d="M788.5 0V675" stroke="#656871"/>
<path d="M863.5 0V675" stroke="#656871"/>
<path d="M938.5 0V675" stroke="#656871"/>
<path d="M1013.5 0V675" stroke="#656871"/>
<path d="M1088.5 0V675" stroke="#656871"/>
<path d="M1162.5 0V675" stroke="#656871"/>
<path d="M38 74.5L1163 74.5001" stroke="#656871"/>
<path d="M38 0.5L1163 0.500098" stroke="#656871"/>
<path d="M38 149.5H638" stroke="#656871"/>
<path d="M714 149.5H1162" stroke="#656871"/>
<path d="M38 224.5H638" stroke="#656871"/>
<path d="M713 224.5H1163" stroke="#656871"/>
<path d="M38 299.5H1163" stroke="#656871"/>
<path d="M564 524.5H1163" stroke="#656871"/>
<path d="M38 374.5H1162" stroke="#656871"/>
<path d="M564 449.5H1163" stroke="#656871"/>
<path d="M38 449.5H488" stroke="#656871"/>
<path d="M38 524.5H488" stroke="#656871"/>
<path d="M38 599.5H1162" stroke="#656871"/>
<path d="M38 674.5H1162" stroke="#656871"/>
</g>
<defs>
<linearGradient id="paint0_linear_47_4422" x1="869.81" y1="-1.03913e-05" x2="1444.35" y2="790.175" gradientUnits="userSpaceOnUse">
<stop stop-color="#FFAC66"/>
<stop offset="1" stop-color="#FF00E5"/>
</linearGradient>
<linearGradient id="paint1_linear_47_4422" x1="117.991" y1="593.25" x2="613.983" y2="593.25" gradientUnits="userSpaceOnUse">
<stop stop-color="#FF452D"/>
<stop offset="1" stop-color="#FF00E5" stop-opacity="0"/>
</linearGradient>
<clipPath id="clip0_47_4422">
<rect width="1200" height="675" fill="white"/>
</clipPath>
</defs>
</svg>
